<?xml version="1.0" encoding="UTF-8"?><svg id="_レイヤー_2" xmlns="http://www.w3.org/2000/svg" viewBox="0 0 105.82 114.37"><defs><style>.cls-1{fill:#ffdab4;}.cls-2{fill:#fff;}.cls-3{fill:#ff0;}.cls-4{fill:#00c100;}</style></defs><g id="_レイヤー_1-2"><path d="M99.18,66c-.27,0-.54-.06-.79-.19-7.89-4.02-13.38-12.79-15.89-25.35-1.86-9.3-1.46-17.32-1.44-17.65.05-.96.84-1.67,1.83-1.65.96.05,1.7.87,1.65,1.83-.02.31-1.43,31.12,15.43,39.71.86.44,1.2,1.49.76,2.35-.31.6-.92.95-1.55.95Z"/><polygon class="cls-3" points="35.35 21.15 26.49 25.49 18.19 33.47 16 43.96 16 52.2 13.56 57.04 6.43 64.91 1.75 75.38 2.6 83.82 6.24 89.77 10.87 92.3 16.75 92.3 20.72 90.2 28.48 94.9 41.03 97.63 55.97 95.88 61.92 91.57 67.77 88.36 75.84 85.81 83.87 80.2 89 72.57 92.2 59.23 91.98 50.69 90.43 40.76 87.49 46.33 81.61 52.2 74.44 55.07 68.45 53.47 68.43 42.94 64.03 31.88 57.97 25.49 48.2 20.93 42.23 20.24 35.35 21.15"/><circle class="cls-2" cx="35.35" cy="40.19" r="6.87"/><path d="M35.35,48.81c-4.75,0-8.62-3.87-8.62-8.62s3.87-8.62,8.62-8.62,8.62,3.87,8.62,8.62-3.87,8.62-8.62,8.62ZM35.35,35.06c-2.83,0-5.13,2.3-5.13,5.13s2.3,5.13,5.13,5.13,5.13-2.3,5.13-5.13-2.3-5.13-5.13-5.13Z"/><circle cx="38.49" cy="38.04" r="1.74"/><circle class="cls-2" cx="49.54" cy="40.19" r="6.87"/><path d="M49.54,48.81c-4.75,0-8.62-3.87-8.62-8.62s3.87-8.62,8.62-8.62,8.62,3.87,8.62,8.62-3.87,8.62-8.62,8.62ZM49.54,35.06c-2.83,0-5.13,2.3-5.13,5.13s2.3,5.13,5.13,5.13,5.13-2.3,5.13-5.13-2.3-5.13-5.13-5.13Z"/><circle cx="52.68" cy="38.04" r="1.74"/><circle class="cls-3" cx="42.23" cy="75.38" r="4.83"/><path d="M42.23,81.95c-3.62,0-6.57-2.95-6.57-6.57s2.95-6.57,6.57-6.57,6.57,2.95,6.57,6.57-2.95,6.57-6.57,6.57ZM42.23,72.29c-1.7,0-3.08,1.38-3.08,3.08s1.38,3.08,3.08,3.08,3.08-1.38,3.08-3.08-1.38-3.08-3.08-3.08Z"/><path d="M70.2,62.21h-3.49v-15.74c0-13.5-10.98-24.48-24.48-24.48s-24.48,10.98-24.48,24.48v15.74h-3.49v-15.74c0-15.42,12.55-27.97,27.97-27.97s27.97,12.55,27.97,27.97v15.74Z"/><path d="M42.23,99.51c-15.02,0-28.62-9.46-33.85-23.53-.34-.9.12-1.91,1.03-2.24.91-.33,1.91.12,2.24,1.03,4.72,12.71,17.01,21.25,30.58,21.25s25.85-8.54,30.58-21.25c.34-.9,1.34-1.36,2.24-1.03.9.34,1.36,1.34,1.03,2.24-5.23,14.07-18.83,23.53-33.85,23.53Z"/><path d="M13.72,94.04c-2.08,0-4.31-.36-6.38-1.42-3.55-1.82-5.87-5.25-6.91-10.21-3.35-15.91,13.83-28.24,14.56-28.76l2.01,2.85c-.16.11-16.03,11.53-13.16,25.19.81,3.87,2.52,6.5,5.08,7.82,4.95,2.55,11.69-.35,11.76-.38l1.41,3.19c-.23.1-3.97,1.72-8.37,1.72Z"/><path d="M65.66,90.48l-.49-3.46c9.45-1.34,16.34-5.35,20.49-11.91,5.77-9.11,5.2-21.34,3.98-29.17-.96,2.13-2.3,3.97-4.04,5.53-6.75,6.07-16.85,5.37-17.28,5.34l.26-3.48c.1,0,9.07.61,14.7-4.47,2.92-2.63,4.47-6.4,4.61-11.19.02-.85.66-1.56,1.51-1.68.84-.11,1.65.4,1.9,1.21.3.97,7.28,23.99-2.69,39.76-4.72,7.47-12.45,12.01-22.96,13.51Z"/><ellipse class="cls-1" cx="42.23" cy="56.31" rx="6.72" ry="4.62"/><path d="M42.23,62.68c-4.75,0-8.46-2.8-8.46-6.36s3.72-6.36,8.46-6.36,8.46,2.8,8.46,6.36-3.72,6.36-8.46,6.36ZM42.23,53.44c-2.93,0-4.97,1.52-4.97,2.88s2.04,2.88,4.97,2.88,4.97-1.52,4.97-2.88-2.04-2.88-4.97-2.88Z"/><path class="cls-1" d="M54.77,107.01h-6.19v-9.24h-6.35v9.24h0v5.62h18.16c0-3.1-2.52-5.62-5.62-5.62Z"/><path d="M60.39,114.37h-18.16c-.96,0-1.74-.78-1.74-1.74v-14.86c0-.96.78-1.74,1.74-1.74h6.35c.96,0,1.74.78,1.74,1.74v7.5h4.45c4.06,0,7.36,3.3,7.36,7.36,0,.96-.78,1.74-1.74,1.74ZM43.97,110.88h14.25c-.64-1.26-1.95-2.13-3.46-2.13h-6.19c-.96,0-1.74-.78-1.74-1.74v-7.5h-2.86v11.37Z"/><path class="cls-1" d="M35.88,97.77v9.24h-6.19c-3.1,0-5.62,2.52-5.62,5.62h0s11.81,0,11.81,0h6.35v-14.86h-6.35Z"/><path d="M42.23,114.37h-18.16c-.96,0-1.74-.78-1.74-1.74,0-4.06,3.3-7.36,7.36-7.36h4.45v-7.5c0-.96.78-1.74,1.74-1.74h6.35c.96,0,1.74.78,1.74,1.74v14.86c0,.96-.78,1.74-1.74,1.74ZM26.23,110.88h14.25v-11.37h-2.86v7.5c0,.96-.78,1.74-1.74,1.74h-6.19c-1.51,0-2.82.87-3.46,2.13Z"/><path d="M48.2,57.18h-11.95c-.48,0-.87-.39-.87-.87s.39-.87.87-.87h11.95c.48,0,.87.39.87.87s-.39.87-.87.87Z"/><ellipse class="cls-4" cx="93.48" cy="12.32" rx="12.32" ry="8.48" transform="translate(18.67 69.71) rotate(-45)"/><path d="M89.71,24.67c-2.38,0-4.56-.78-6.18-2.4h0c-2.02-2.02-2.79-4.98-2.17-8.34.58-3.12,2.31-6.26,4.89-8.83,2.57-2.57,5.71-4.31,8.83-4.89,3.36-.62,6.32.15,8.34,2.17,4.05,4.05,2.86,11.6-2.72,17.17-3.35,3.35-7.41,5.12-11,5.12ZM86,19.8c2.58,2.57,8.18,1.33,12.24-2.72,4.05-4.05,5.3-9.66,2.72-12.24-1.18-1.18-3.05-1.61-5.24-1.2-2.43.45-4.92,1.84-7,3.92s-3.47,4.57-3.93,7c-.41,2.2.02,4.06,1.2,5.24h0Z"/><ellipse class="cls-4" cx="74.01" cy="13.95" rx="6.89" ry="10.02" transform="translate(11.81 56.42) rotate(-45)"/><path d="M77.08,24.31c-3,0-6.39-1.47-9.17-4.26-4.66-4.66-5.64-11-2.21-14.42,3.43-3.42,9.76-2.45,14.42,2.21,4.66,4.66,5.63,11,2.21,14.42h0c-1.38,1.38-3.23,2.04-5.25,2.04ZM81.09,21.04h.01-.01ZM70.92,7.09c-1.11,0-2.08.33-2.76,1.01-1.97,1.97-.96,6.32,2.21,9.49,3.17,3.17,7.51,4.18,9.49,2.21,1.97-1.97.96-6.32-2.21-9.49-2.07-2.07-4.64-3.22-6.73-3.22Z"/><path d="M84.76,22.78c-.22,0-.44-.04-.65-.12-.89-.36-1.33-1.37-.97-2.27,3.4-8.48,11.32-11.55,11.66-11.68.9-.34,1.91.12,2.25,1.02s-.11,1.9-1.01,2.25c-.1.04-6.85,2.71-9.65,9.71-.27.68-.93,1.1-1.62,1.1Z"/><path d="M81.09,22.78c-.72,0-1.39-.45-1.64-1.16-1.34-3.78-6.13-6.06-6.18-6.09-.87-.41-1.25-1.45-.84-2.32.41-.87,1.44-1.25,2.31-.85.25.12,6.16,2.91,7.99,8.08.32.91-.15,1.91-1.06,2.23-.19.07-.39.1-.58.1Z"/></g></svg>