<?xml version="1.0" encoding="UTF-8"?><svg id="_レイヤー_2" xmlns="http://www.w3.org/2000/svg" viewBox="0 0 303.08 272.16"><defs><style>.cls-1{fill:#ffdab4;}.cls-2{fill:#ff7bac;}.cls-3{fill:#ccc;}.cls-4{fill:#ed1c24;}.cls-5{fill:#fff;}.cls-6{fill:#ff0;}.cls-7{fill:#ffa1c4;}</style></defs><g id="_レイヤー_1-2"><path class="cls-3" d="M288.14,123.51l.74-19.06-9.43,16.58-3.02-20.13-7.85,27.49,8.11,2.31-12.68,44.4c-.69,2.4.7,4.9,3.1,5.59h0c2.4.69,4.9-.7,5.59-3.1l12.68-44.4,8.11,2.31,7.85-27.49-13.2,15.5Z"/><path d="M268.36,182.62c-.58,0-1.16-.08-1.73-.24-3.32-.95-5.25-4.42-4.3-7.74l12.2-42.73-6.43-1.84c-.44-.13-.82-.43-1.05-.83-.22-.4-.28-.88-.15-1.33l7.85-27.49c.22-.79.97-1.31,1.79-1.26.82.05,1.49.67,1.61,1.48l2.27,15.15,6.94-12.2c.4-.7,1.22-1.04,2-.81.77.22,1.29.94,1.26,1.75l-.55,14.02,9.93-11.67c.53-.62,1.43-.8,2.15-.41.72.39,1.08,1.23.85,2.02l-7.85,27.49c-.26.93-1.23,1.46-2.16,1.2l-6.43-1.84-12.2,42.73c-.46,1.61-1.52,2.94-2.98,3.75-.94.52-1.98.79-3.03.79ZM270.73,127.19l6.43,1.84c.44.13.82.43,1.05.83.22.4.28.88.15,1.33l-12.68,44.4c-.42,1.47.44,3.01,1.91,3.43,1.47.42,3.01-.44,3.43-1.91l12.68-44.4c.27-.93,1.23-1.46,2.16-1.2l6.43,1.84,5.16-18.08-7.98,9.38c-.48.57-1.28.76-1.96.49-.69-.27-1.14-.95-1.11-1.69l.46-11.91-5.89,10.36c-.37.65-1.1.99-1.84.85-.73-.14-1.3-.72-1.41-1.46l-1.83-12.18-5.16,18.08Z"/><path class="cls-3" d="M33.65,169.33l-10.73-41.16c4.3-3.41,6.29-10.07,4.53-16.85-2.24-8.6-9.67-14.12-16.59-12.31-6.92,1.8-10.71,10.24-8.47,18.85,1.77,6.78,6.76,11.62,12.18,12.5l10.73,41.16c.6,2.31,2.96,3.69,5.26,3.09h0c2.31-.6,3.69-2.96,3.09-5.26Z"/><path d="M29.48,176.48c-2.69,0-5.16-1.81-5.87-4.53l-10.46-40.11c-5.76-1.45-10.68-6.75-12.45-13.55-1.19-4.54-.87-9.21.89-13.13,1.82-4.05,4.95-6.84,8.82-7.85,7.83-2.04,16.24,4.04,18.72,13.56,1.77,6.79.06,13.82-4.25,17.9l10.46,40.11c.41,1.57.18,3.2-.64,4.6-.82,1.4-2.13,2.39-3.7,2.8-.51.13-1.02.2-1.53.2ZM13.54,100.41c-.75,0-1.5.09-2.24.29-2.82.74-5.14,2.83-6.52,5.9-1.44,3.2-1.69,7.04-.7,10.82,1.54,5.92,5.87,10.43,10.77,11.22.68.11,1.24.61,1.41,1.28l10.73,41.16c.36,1.37,1.76,2.2,3.14,1.84.67-.17,1.22-.6,1.57-1.19.35-.59.44-1.28.27-1.95h0s-10.73-41.16-10.73-41.16c-.17-.67.06-1.38.6-1.81,3.89-3.08,5.47-9.13,3.92-15.04-1.75-6.71-6.95-11.35-12.23-11.35Z"/><rect class="cls-7" x="36.4" y="138.57" width="62.41" height="15.2" transform="translate(-37.53 24.18) rotate(-15.93)"/><path d="M39.69,163.79c-.76,0-1.46-.5-1.68-1.27l-4.18-14.62c-.13-.45-.07-.92.15-1.33.22-.4.6-.7,1.05-.83l60.01-17.13c.92-.26,1.89.27,2.16,1.2l4.18,14.62c.13.45.07.92-.15,1.33-.22.4-.6.7-1.05.83l-60.01,17.13c-.16.05-.32.07-.48.07ZM37.67,148.62l3.22,11.26,56.65-16.17-3.22-11.26-56.65,16.17Z"/><polygon class="cls-1" points="21.56 151.41 30.35 156.81 25.74 166.03 39.69 162.05 35.51 147.42 21.56 151.41"/><path d="M25.74,167.77c-.51,0-1.01-.22-1.34-.63-.44-.53-.53-1.28-.22-1.89l3.9-7.79-7.42-4.56c-.59-.36-.91-1.04-.82-1.72.09-.68.58-1.25,1.25-1.44l13.95-3.98c.92-.27,1.89.27,2.16,1.2l4.18,14.62c.13.45.07.92-.15,1.33-.22.4-.6.7-1.05.83l-13.95,3.98c-.16.05-.32.07-.48.07ZM25.85,152l5.41,3.32c.77.47,1.05,1.46.65,2.27l-2.84,5.68,8.46-2.42-3.22-11.26-8.46,2.42Z"/><rect class="cls-7" x="200.72" y="138.57" width="62.41" height="15.2" transform="translate(414.81 350.39) rotate(-164.07)"/><path d="M259.84,163.79c-.16,0-.32-.02-.48-.07l-60.01-17.13c-.44-.13-.82-.43-1.05-.83-.22-.4-.28-.88-.15-1.33l4.18-14.62c.27-.93,1.23-1.46,2.16-1.2l60.01,17.13c.44.13.82.43,1.05.83.22.4.28.88.15,1.33l-4.18,14.62c-.22.77-.92,1.27-1.68,1.27ZM201.99,143.71l56.65,16.17,3.22-11.26-56.65-16.17-3.22,11.26Z"/><polygon class="cls-1" points="277.97 151.41 269.18 156.81 273.79 166.03 259.84 162.05 264.01 147.42 277.97 151.41"/><path d="M273.79,167.77c-.16,0-.32-.02-.48-.07l-13.95-3.98c-.44-.13-.82-.43-1.05-.83-.22-.4-.28-.88-.15-1.33l4.18-14.62c.26-.93,1.23-1.46,2.16-1.2l13.95,3.98c.66.19,1.16.76,1.25,1.44s-.23,1.36-.82,1.72l-7.42,4.56,3.9,7.79c.31.62.22,1.36-.22,1.89-.34.41-.83.63-1.34.63ZM262,160.85l8.46,2.42-2.84-5.68c-.4-.81-.12-1.79.65-2.27l5.41-3.32-8.46-2.42-3.22,11.26Z"/><path class="cls-7" d="M254.58,237.34c-3.44,0-6.97-1.18-10.13-3.56-5.84-4.41-9.4-12.78-4.89-20.23,1.75-2.9,5.05-5.05,9.1-6.64-7.13-5.49-15.95-10.58-22.55-13.74-2.16-1.03-3.08-3.62-2.05-5.79,1.03-2.16,3.62-3.08,5.78-2.05,2.5,1.19,18.12,8.85,29.04,18.81,10.09-1.83,20.76-1.77,24.07-1.69,2.4.05,4.3,2.04,4.24,4.43-.05,2.4-2,4.31-4.43,4.24-6.25-.14-11.98.16-16.94.75,1.79,2.59,3.07,5.26,3.58,7.95.88,4.63-.45,9-3.85,12.65-3.01,3.23-6.93,4.86-10.98,4.86ZM256.16,213.61c-4.96,1.26-8.22,2.85-9.18,4.44-1.93,3.2.04,6.81,2.7,8.81.91.69,5.63,3.89,9.53-.29,1.52-1.63,2.03-3.2,1.67-5.11-.46-2.43-2.19-5.11-4.72-7.85Z"/><path d="M254.58,239.09c-3.93,0-7.79-1.35-11.18-3.91-6.46-4.88-10.37-14.19-5.33-22.52,1.44-2.38,3.84-4.42,7.17-6.11-6.85-4.94-14.58-9.25-19.88-11.79-3.03-1.45-4.31-5.08-2.87-8.11.7-1.47,1.93-2.57,3.46-3.11,1.53-.54,3.18-.45,4.65.25,2.93,1.4,17.87,8.76,28.82,18.52,10.07-1.71,20.54-1.64,23.58-1.57,1.62.04,3.14.7,4.26,1.88,1.12,1.17,1.72,2.72,1.69,4.34-.04,1.64-.7,3.16-1.88,4.28-1.17,1.11-2.7,1.69-4.34,1.67-4.84-.11-9.52.04-13.93.45,1.17,2.1,1.95,4.17,2.34,6.18.99,5.2-.5,10.09-4.29,14.16-3.26,3.49-7.61,5.42-12.26,5.42ZM227.98,186.67c-.29,0-.58.05-.87.15-.65.23-1.18.7-1.48,1.33-.62,1.29-.07,2.84,1.22,3.46,6.08,2.91,15.28,8.09,22.86,13.93.5.38.75,1,.66,1.63-.09.62-.5,1.15-1.09,1.38-4.06,1.6-6.84,3.59-8.25,5.92-3.97,6.57-.77,13.99,4.45,17.93,2.78,2.1,5.92,3.21,9.08,3.21,3.67,0,7.12-1.53,9.71-4.31,3-3.22,4.18-7.07,3.41-11.13-.44-2.3-1.55-4.75-3.3-7.28-.35-.5-.41-1.15-.16-1.71s.78-.94,1.39-1.01c5.37-.63,11.15-.89,17.18-.76.73.04,1.36-.23,1.85-.7.5-.48.78-1.13.8-1.84.02-.69-.24-1.35-.72-1.85-.48-.5-1.12-.78-1.82-.8-3.04-.07-13.73-.14-23.73,1.66-.53.1-1.08-.06-1.49-.43-10.87-9.92-26.83-17.67-28.61-18.52-.35-.17-.73-.25-1.11-.25ZM254.66,230.42c-2.24,0-4.4-.94-6.03-2.17-3.26-2.46-5.63-6.98-3.14-11.11,1.25-2.06,4.69-3.82,10.24-5.23.62-.16,1.28.04,1.71.51,2.93,3.17,4.66,6.1,5.16,8.71.47,2.47-.2,4.58-2.11,6.62-1.8,1.93-3.84,2.67-5.83,2.67ZM255.57,215.56c-4.46,1.24-6.61,2.57-7.1,3.38-1.37,2.27.2,4.97,2.25,6.52.98.74,4.4,2.93,7.21-.09,1.32-1.42,1.45-2.46,1.23-3.59-.34-1.77-1.54-3.86-3.59-6.22Z"/><path class="cls-7" d="M207.11,249.15c-8.16-12.15-36.3,2.58-36.3,2.58v-17.51h-10.29v17.51c-8.36,9.33-.58,18.68-.58,18.68h44.65s10.68-9.12,2.51-21.26Z"/><path d="M204.6,272.16h-44.65c-.52,0-1.01-.23-1.34-.63-2.96-3.56-6.63-12.33.17-20.45v-16.86c0-.96.78-1.74,1.74-1.74h10.29c.96,0,1.74.78,1.74,1.74v14.72c7.4-3.42,28.53-11.89,36-.76,8.92,13.28-2.71,23.46-2.83,23.56-.32.27-.72.42-1.13.42ZM160.82,268.67h43.09c1.81-1.8,8.09-9.11,1.75-18.54h0c-5.97-8.89-26.6-.74-34.04,3.15-.54.28-1.19.26-1.71-.05-.52-.32-.84-.88-.84-1.49v-15.77h-6.8v15.77c0,.43-.16.84-.45,1.16-6.19,6.91-2.43,13.7-1,15.78Z"/><path class="cls-7" d="M94.87,249.15c8.16-12.15,36.3,2.58,36.3,2.58v-17.51h10.29v17.51c8.36,9.33.58,18.68.58,18.68h-44.65s-10.68-9.12-2.51-21.26Z"/><path d="M142.03,272.16h-44.65c-.42,0-.82-.15-1.13-.42-.12-.1-11.75-10.28-2.83-23.56h0c7.47-11.13,28.61-2.66,36,.76v-14.72c0-.96.78-1.74,1.74-1.74h10.29c.96,0,1.74.78,1.74,1.74v16.86c6.81,8.13,3.14,16.89.17,20.45-.33.4-.82.63-1.34.63ZM98.07,268.67h43.08c1.41-2.08,5.16-8.91-1-15.78-.29-.32-.45-.73-.45-1.16v-15.77h-6.8v15.77c0,.61-.32,1.18-.84,1.49-.52.32-1.17.34-1.71.05-7.44-3.89-28.07-12.04-34.04-3.15h0c-6.33,9.43-.06,16.74,1.75,18.55Z"/><ellipse class="cls-7" cx="150.99" cy="166.03" rx="96.32" ry="76.28"/><path d="M150.99,244.05c-54.07,0-98.06-35-98.06-78.02s43.99-78.02,98.06-78.02,98.07,35,98.07,78.02-43.99,78.02-98.07,78.02ZM150.99,91.5c-52.15,0-94.58,33.43-94.58,74.53s42.43,74.53,94.58,74.53,94.58-33.43,94.58-74.53-42.43-74.53-94.58-74.53Z"/><polygon class="cls-2" points="211.96 17.42 211.96 42.39 187.55 27.39 197.69 17.42 211.96 17.42"/><path d="M211.96,44.13c-.32,0-.63-.09-.91-.26l-24.41-15c-.46-.28-.76-.76-.82-1.29-.06-.53.13-1.06.51-1.44l10.14-9.97c.33-.32.77-.5,1.22-.5h14.27c.96,0,1.74.78,1.74,1.74v24.97c0,.63-.34,1.21-.89,1.52-.26.15-.56.22-.85.22ZM190.36,27.08l19.85,12.2v-20.11h-11.81l-8.04,7.91Z"/><polygon class="cls-2" points="90.03 17.42 90.03 51.15 108.97 46.02 106.91 18.71 90.03 17.42"/><path d="M90.03,52.89c-.38,0-.75-.12-1.06-.36-.43-.33-.68-.84-.68-1.39V17.42c0-.49.2-.95.56-1.28s.84-.51,1.32-.46l16.89,1.29c.86.07,1.54.75,1.61,1.61l2.05,27.31c.06.83-.48,1.6-1.28,1.81l-18.94,5.13c-.15.04-.3.06-.46.06ZM91.77,19.3v29.56l15.35-4.16-1.83-24.37-13.52-1.03Z"/><ellipse class="cls-7" cx="150.99" cy="79.76" rx="85.44" ry="67.66"/><path d="M150.99,149.17c-48.07,0-87.18-31.13-87.18-69.4S102.92,10.36,150.99,10.36s87.18,31.13,87.18,69.4-39.11,69.4-87.18,69.4ZM150.99,13.85c-46.15,0-83.69,29.57-83.69,65.91s37.54,65.91,83.69,65.91,83.69-29.57,83.69-65.91S197.14,13.85,150.99,13.85Z"/><circle class="cls-5" cx="140.87" cy="48.58" r="10.12"/><path d="M140.87,60.45c-6.54,0-11.87-5.32-11.87-11.87s5.32-11.87,11.87-11.87,11.87,5.32,11.87,11.87-5.32,11.87-11.87,11.87ZM140.87,40.21c-4.62,0-8.38,3.76-8.38,8.38s3.76,8.38,8.38,8.38,8.38-3.76,8.38-8.38-3.76-8.38-8.38-8.38Z"/><circle class="cls-5" cx="161.11" cy="48.58" r="10.12"/><path d="M161.11,60.45c-6.54,0-11.87-5.32-11.87-11.87s5.32-11.87,11.87-11.87,11.87,5.32,11.87,11.87-5.32,11.87-11.87,11.87ZM161.11,40.21c-4.62,0-8.38,3.76-8.38,8.38s3.76,8.38,8.38,8.38,8.38-3.76,8.38-8.38-3.76-8.38-8.38-8.38Z"/><circle cx="140.87" cy="48.58" r="2.57"/><circle cx="161.1" cy="48.58" r="2.57"/><circle class="cls-6" cx="150.99" cy="164.8" r="6.42"/><path d="M150.99,172.96c-4.5,0-8.16-3.66-8.16-8.16s3.66-8.16,8.16-8.16,8.16,3.66,8.16,8.16-3.66,8.16-8.16,8.16ZM150.99,160.13c-2.57,0-4.67,2.1-4.67,4.67s2.1,4.67,4.67,4.67,4.67-2.1,4.67-4.67-2.1-4.67-4.67-4.67Z"/><path class="cls-2" d="M90.03,17.42l13.91,10.3c4.78,3.54,11.59.57,12.27-5.33l2.36-20.64c-11.2,3.16-21.01,8.63-28.54,15.68Z"/><path d="M108.51,30.99c-1.98,0-3.94-.63-5.61-1.87l-13.91-10.3c-.42-.31-.67-.78-.7-1.3-.03-.52.17-1.02.55-1.37C96.65,8.82,106.77,3.26,118.09.07c.56-.16,1.16-.03,1.6.35s.67.95.6,1.53l-2.36,20.64c-.39,3.4-2.49,6.25-5.63,7.61-1.23.53-2.52.8-3.8.8ZM92.78,17.29l12.2,9.03c1.74,1.29,3.96,1.54,5.94.68,1.98-.86,3.31-2.66,3.56-4.81l2.06-18.01c-9.04,2.89-17.17,7.38-23.75,13.11Z"/><path class="cls-2" d="M211.96,17.42l-13.91,10.3c-4.78,3.54-11.59.57-12.27-5.33l-2.36-20.64c11.2,3.16,21.01,8.63,28.54,15.68Z"/><path d="M193.47,30.99c-1.28,0-2.57-.26-3.8-.8-3.14-1.37-5.24-4.21-5.63-7.61l-2.35-20.64c-.07-.58.16-1.15.6-1.53.44-.38,1.05-.51,1.6-.35,11.32,3.19,21.44,8.76,29.25,16.08.38.35.58.86.55,1.37-.03.52-.29.99-.7,1.3l-13.91,10.3c-1.67,1.24-3.63,1.87-5.61,1.87ZM185.46,4.18l2.05,18.01c.25,2.15,1.58,3.94,3.56,4.81,1.98.86,4.2.61,5.94-.68l12.2-9.03c-6.58-5.73-14.71-10.22-23.75-13.11Z"/><rect class="cls-2" x="114.44" y="58.7" width="73.11" height="31.05" rx="13.27" ry="13.27"/><path d="M172.02,91.5h-42.06c-9.52,0-17.27-7.75-17.27-17.27s7.75-17.27,17.27-17.27h42.06c9.52,0,17.27,7.75,17.27,17.27s-7.75,17.27-17.27,17.27ZM129.96,60.45c-7.6,0-13.78,6.18-13.78,13.78s6.18,13.78,13.78,13.78h42.06c7.6,0,13.78-6.18,13.78-13.78s-6.18-13.78-13.78-13.78h-42.06Z"/><path d="M138.31,82.66c-1.93,0-3.49-1.56-3.49-3.49v-9.89c0-1.93,1.56-3.49,3.49-3.49s3.49,1.56,3.49,3.49v9.89c0,1.93-1.56,3.49-3.49,3.49Z"/><path d="M163.67,82.66c-1.93,0-3.49-1.56-3.49-3.49v-9.89c0-1.93,1.56-3.49,3.49-3.49s3.49,1.56,3.49,3.49v9.89c0,1.93-1.56,3.49-3.49,3.49Z"/><path d="M150.99,115.57c-21.48,0-41.76-10.45-54.26-27.96-.56-.78-.38-1.87.41-2.43.78-.56,1.87-.38,2.43.41,11.84,16.59,31.06,26.49,51.42,26.49s39.58-9.9,51.42-26.49c.56-.78,1.65-.97,2.43-.41.78.56.97,1.65.41,2.43-12.49,17.51-32.78,27.96-54.26,27.96Z"/><path class="cls-4" d="M202.13,88.84c-7.5,9.6-17.64,17.02-29.33,21.2.75,7.09,4.32,14.61,10.46,20.76,11.89,11.88,28.9,14.13,38.01,5.03,9.11-9.11,6.86-26.13-5.03-38.01-4.25-4.25-9.15-7.26-14.12-8.97Z"/><path d="M206.83,143.13c-8.33,0-17.52-3.82-24.81-11.1-6.24-6.24-10.13-13.98-10.96-21.8-.09-.8.39-1.56,1.15-1.83,11.28-4.03,21.15-11.16,28.55-20.63.46-.58,1.24-.81,1.94-.58,5.39,1.85,10.5,5.1,14.79,9.38,12.55,12.55,14.8,30.71,5.03,40.48-4.1,4.1-9.66,6.08-15.67,6.08ZM174.71,111.19c1.03,6.58,4.47,13.05,9.79,18.37,11.18,11.19,27.13,13.44,35.55,5.03,8.41-8.41,6.16-24.36-5.03-35.55-3.6-3.6-7.84-6.4-12.3-8.13-7.41,9.13-17.05,16.11-28,20.28Z"/><path class="cls-4" d="M190.71,100.21s12.45,12.57,16.08,22.38"/><path d="M206.8,124.34c-.71,0-1.38-.44-1.64-1.14-3.46-9.34-15.56-21.64-15.69-21.76-.68-.68-.67-1.79.01-2.47.68-.68,1.79-.67,2.47.01.52.52,12.76,12.96,16.48,23,.34.9-.13,1.91-1.03,2.24-.2.07-.4.11-.61.11Z"/><path class="cls-4" d="M248.65,206.92s5.33-2.02,10.22-2.76"/><path d="M248.66,208.66c-.71,0-1.37-.43-1.63-1.13-.34-.9.11-1.91,1.01-2.25.22-.09,5.56-2.09,10.58-2.86.95-.13,1.84.51,1.99,1.46.14.95-.51,1.84-1.46,1.99-4.65.71-9.82,2.65-9.87,2.67-.2.08-.41.11-.62.11Z"/><path class="cls-4" d="M256.16,213.61s6.8-1.42,9.67-1.72"/><path d="M256.16,215.35c-.81,0-1.53-.56-1.7-1.39-.2-.94.41-1.87,1.35-2.06.28-.06,6.92-1.45,9.85-1.75.93-.09,1.81.6,1.91,1.56.1.96-.6,1.81-1.56,1.91-2.75.29-9.42,1.68-9.49,1.69-.12.03-.24.04-.36.04Z"/></g></svg>