<?xml version="1.0" encoding="UTF-8"?><svg id="_レイヤー_2" xmlns="http://www.w3.org/2000/svg" viewBox="0 0 217.94 329.64"><defs><style>.cls-1{fill:#fcee21;}.cls-2{fill:#8cc63f;}.cls-3{fill:#ed1c24;}.cls-4{fill:#fff;}.cls-5{fill:#ff0;}</style></defs><g id="_レイヤー_1-2"><polygon class="cls-4" points="95.71 176.95 82.2 176.48 61 181.13 52.55 182.99 48.4 181.59 47.18 176.95 48.79 168.89 50.83 163.89 47.56 158.89 40.75 157.39 35.82 159.53 32.68 166.18 33.7 171.39 38.88 175.28 38.88 181.81 39.18 187.35 42.47 192.84 45.6 194.81 49.71 195.65 57.23 194.25 67.88 191.88 92.87 185.36 95.71 176.95"/><path class="cls-4" d="M120.27,172.8l32.09,10.58c4.72,1.56,5.63,7.84,1.55,10.67l-13.34,9.25s7.69,3.47,5.04,8.96c-2.89,5.97-14.13-1.63-18.66-4.48-4.53-2.85-3.55-4.48-3.55-4.48l19.32-11.86-24.85-6.24-4.35-11.11,6.76-1.28Z"/><path d="M141.75,216.23c-4.35,0-9.93-3.29-14.94-6.47l-.8-.51c-5.55-3.49-4.55-6.13-4.11-6.86.14-.24.34-.44.58-.58l15.79-9.69-20.83-5.23c-.55-.14-.99-.53-1.2-1.06l-4.35-11.11c-.19-.48-.15-1.03.1-1.48s.69-.77,1.2-.87l6.76-1.28c.29-.06.59-.04.87.06l32.09,10.58c2.82.93,4.83,3.33,5.26,6.27.42,2.94-.82,5.81-3.26,7.5l-11.11,7.7c1.4,1.02,2.99,2.54,3.72,4.56.62,1.71.51,3.53-.33,5.27-.72,1.5-1.92,2.52-3.47,2.96-.61.17-1.27.25-1.95.25ZM125.31,204.18c.32.43,1.02,1.15,2.57,2.13l.81.51c3.19,2.03,10.66,6.77,14.06,5.8.6-.17.99-.52,1.29-1.12.44-.91.5-1.72.19-2.56-.88-2.41-4.35-4.03-4.38-4.05-.57-.26-.96-.81-1.02-1.43-.06-.63.23-1.23.74-1.59l13.34-9.25c1.36-.95,2.04-2.49,1.8-4.13-.24-1.64-1.32-2.93-2.9-3.45l-31.66-10.44-4.25.81,3.26,8.32,23.98,6.02c.68.17,1.19.73,1.3,1.43.11.69-.21,1.38-.81,1.75l-18.32,11.25Z"/><path d="M51.75,184.8c-1.5,0-2.92-.51-4.06-1.47-1.43-1.2-2.26-2.97-2.26-4.84v-7.64c0-.96.78-1.74,1.74-1.74s1.74.78,1.74,1.74v7.64c0,.84.37,1.63,1.01,2.17.64.54,1.48.77,2.31.62l37.92-8.32c.94-.21,1.87.39,2.08,1.33.21.94-.39,1.87-1.33,2.08l-37.99,8.34c-.39.07-.78.1-1.17.1Z"/><path d="M49.72,197.39c-2.84,0-5.6-.96-7.87-2.78-3-2.41-4.72-5.99-4.72-9.83v-8.29c-1.41-.62-3.64-1.93-5.03-4.37-1.39-2.45-1.61-5.38-.64-8.72,1.84-6.36,7.43-8.18,11.65-7.79,5.12.46,9.01,3.79,9.45,8.1.33,3.27-.86,5.96-3.27,7.37-2.2,1.28-5.01,1.21-7-.2-.79-.56-.98-1.64-.42-2.43.55-.79,1.64-.98,2.43-.42.87.61,2.22.62,3.23.04,1.2-.7,1.76-2.13,1.57-4.01-.3-2.92-3.39-4.72-6.29-4.98-3.02-.27-6.74.97-7.99,5.29-.69,2.39-.59,4.4.31,5.99,1.36,2.42,4.18,3.22,4.21,3.23.76.21,1.29.9,1.29,1.69v9.5c0,2.78,1.24,5.37,3.41,7.11,2.17,1.74,4.97,2.4,7.68,1.79l34.06-7.56c.94-.21,1.87.39,2.08,1.33.21.94-.39,1.87-1.33,2.08l-34.06,7.56c-.92.2-1.84.3-2.75.3Z"/><path d="M146.57,52.28s19.22-21.36,40.71-9.67c10.55,5.74,18.8,16.87,8.79,43.12-10.01,26.25,21.86,19.27,21.86,19.27,0,0-28.64,52.28-71.94,4.47-43.31-47.81.58-57.2.58-57.2Z"/><path d="M71.37,51.28s-19.22-21.36-40.71-9.67c-10.55,5.74-18.8,16.87-8.79,43.12C31.87,110.99,0,104.01,0,104.01c0,0,28.64,52.28,71.94,4.47,43.31-47.81-.58-57.2-.58-57.2Z"/><circle cx="90.25" cy="46.46" r="46.46"/><circle cx="144.6" cy="42.41" r="31.27"/><path class="cls-4" d="M167.29,74.22v-16.58h-42.21l-5.48-15.23-5.48,15.23h-10.29l-5.48-15.23-5.48,15.23h-42.21v16.58c-6.5,0-11.77,5.27-11.77,11.77s5.27,11.77,11.77,11.77c.18,0,.35-.02.52-.03,3.43,25.97,23.93,46.55,49.86,50.08v11.08h15.48v-11.03c26.12-3.38,46.81-24.02,50.25-50.12.17,0,.35.03.52.03,6.5,0,11.77-5.27,11.77-11.77s-5.27-11.77-11.77-11.77Z"/><path d="M116.51,160.64h-15.48c-.96,0-1.74-.78-1.74-1.74v-9.57c-25.49-4.13-45.6-24.33-49.63-49.85-6.99-.51-12.53-6.36-12.53-13.48s5.14-12.55,11.77-13.41v-14.95c0-.96.78-1.74,1.74-1.74h40.99l5.07-14.08c.25-.69.91-1.15,1.64-1.15h0c.74,0,1.39.46,1.64,1.15l5.07,14.08h7.83l5.07-14.08c.25-.69.91-1.15,1.64-1.15s1.39.46,1.64,1.15l5.07,14.08h40.99c.96,0,1.74.78,1.74,1.74v14.95c6.63.86,11.77,6.54,11.77,13.41s-5.53,12.97-12.53,13.48c-4.06,25.69-24.32,45.91-50.02,49.9v9.52c0,.96-.78,1.74-1.74,1.74ZM102.78,157.15h11.99v-9.29c0-.88.65-1.62,1.52-1.73,25.35-3.28,45.4-23.27,48.75-48.62.12-.9.92-1.56,1.81-1.51h.22c.07.02.14.02.22.02,5.53,0,10.03-4.5,10.03-10.03s-4.5-10.03-10.03-10.03c-.96,0-1.74-.78-1.74-1.74v-14.84h-40.47c-.74,0-1.39-.46-1.64-1.15l-3.84-10.67-3.84,10.67c-.25.69-.91,1.15-1.64,1.15h-10.29c-.74,0-1.39-.46-1.64-1.15l-3.84-10.67-3.84,10.67c-.25.69-.91,1.15-1.64,1.15h-40.47v14.84c0,.96-.78,1.74-1.74,1.74-5.53,0-10.03,4.5-10.03,10.03s4.5,10.03,10.03,10.03c.07,0,.15,0,.22-.01h.22c.91-.06,1.69.6,1.81,1.5,3.32,25.18,23.21,45.15,48.37,48.58.86.12,1.51.86,1.51,1.73v9.33Z"/><circle class="cls-4" cx="98.85" cy="85.99" r="10.12"/><path d="M98.85,97.86c-6.54,0-11.87-5.32-11.87-11.87s5.32-11.87,11.87-11.87,11.87,5.32,11.87,11.87-5.32,11.87-11.87,11.87ZM98.85,77.62c-4.62,0-8.38,3.76-8.38,8.38s3.76,8.38,8.38,8.38,8.38-3.76,8.38-8.38-3.76-8.38-8.38-8.38Z"/><circle class="cls-4" cx="119.09" cy="85.99" r="10.12"/><path d="M119.09,97.86c-6.54,0-11.87-5.32-11.87-11.87s5.32-11.87,11.87-11.87,11.87,5.32,11.87,11.87-5.32,11.87-11.87,11.87ZM119.09,77.62c-4.62,0-8.38,3.76-8.38,8.38s3.76,8.38,8.38,8.38,8.38-3.76,8.38-8.38-3.76-8.38-8.38-8.38Z"/><circle cx="98.85" cy="85.99" r="2.57"/><circle cx="119.08" cy="85.99" r="2.57"/><path d="M119.09,77.62c-.96,0-1.74-.78-1.74-1.74v-4.38c0-.96.78-1.74,1.74-1.74s1.74.78,1.74,1.74v4.38c0,.96-.78,1.74-1.74,1.74Z"/><path d="M122.9,78.36c-.82-.5-1.09-1.57-.59-2.4l2.27-3.75c.5-.82,1.57-1.09,2.4-.59.82.5,1.09,1.57.59,2.4l-2.27,3.75c-.5.82-1.57,1.09-2.4.59Z"/><path d="M94.83,78.47c.85-.45,1.18-1.51.73-2.36l-2.05-3.87c-.45-.85-1.51-1.18-2.36-.73-.85.45-1.18,1.51-.73,2.36l2.05,3.87c.45.85,1.51,1.18,2.36.73Z"/><path d="M98.85,77.62c-.96,0-1.74-.78-1.74-1.74v-4.38c0-.96.78-1.74,1.74-1.74s1.74.78,1.74,1.74v4.38c0,.96-.78,1.74-1.74,1.74Z"/><path d="M108.97,119.79c-13.77,0-26.71-6.1-35.48-16.73-.61-.74-.51-1.84.24-2.46.75-.61,1.84-.51,2.46.24,8.11,9.83,20.06,15.47,32.79,15.47s24.32-5.47,32.42-15.02c.62-.73,1.72-.83,2.46-.2.73.62.82,1.72.2,2.46-8.76,10.33-21.55,16.25-35.08,16.25Z"/><circle cx="62.08" cy="83.87" r="2.3"/><circle cx="71.24" cy="86.14" r="2.3"/><circle cx="64.54" cy="92.84" r="2.3"/><circle cx="155.86" cy="83.68" r="2.3"/><circle cx="153.6" cy="92.84" r="2.3"/><circle cx="146.9" cy="86.14" r="2.3"/><path class="cls-2" d="M97.87,168.89s-63.78,41.58-38.31,122.8h143.59s-83.09-78.12-83.09-122.8h-22.19Z"/><path d="M203.15,293.44H59.56c-.76,0-1.44-.5-1.67-1.22-13.35-42.59-2.04-74.25,9.79-93.3,12.82-20.64,28.57-31.05,29.23-31.48.28-.18.61-.28.95-.28h22.19c.96,0,1.74.78,1.74,1.74,0,43.42,81.71,120.76,82.54,121.53.52.49.69,1.25.43,1.91-.26.66-.91,1.1-1.62,1.1ZM60.85,289.95h137.98c-6.6-6.45-22.67-22.57-38.56-41.79-26.99-32.63-41.07-58.7-41.9-77.53h-19.95c-2.57,1.79-16.57,12.04-27.84,30.24-11.29,18.24-22.07,48.43-9.73,89.07Z"/><rect class="cls-1" x="92.87" y="158.89" width="32.19" height="10" rx="4.27" ry="4.27"/><path d="M120.07,170.64h-22.19c-3.72,0-6.74-3.03-6.74-6.74s3.03-6.74,6.74-6.74h22.19c3.72,0,6.74,3.02,6.74,6.74s-3.02,6.74-6.74,6.74ZM97.87,160.64c-1.79,0-3.26,1.46-3.26,3.25s1.46,3.26,3.26,3.26h22.19c1.79,0,3.25-1.46,3.25-3.26s-1.46-3.25-3.25-3.25h-22.19Z"/><circle class="cls-5" cx="102.55" cy="192.84" r="6.42"/><path d="M102.55,201c-4.5,0-8.16-3.66-8.16-8.16s3.66-8.16,8.16-8.16,8.16,3.66,8.16,8.16-3.66,8.16-8.16,8.16ZM102.55,188.17c-2.57,0-4.67,2.1-4.67,4.67s2.1,4.67,4.67,4.67,4.67-2.1,4.67-4.67-2.1-4.67-4.67-4.67Z"/><rect class="cls-4" x="89.71" y="291.7" width="10.29" height="17.51"/><path d="M100,310.95h-10.29c-.96,0-1.74-.78-1.74-1.74v-17.51c0-.96.78-1.74,1.74-1.74h10.29c.96,0,1.74.78,1.74,1.74v17.51c0,.96-.78,1.74-1.74,1.74ZM91.46,307.46h6.8v-14.02h-6.8v14.02Z"/><rect class="cls-4" x="116.38" y="291.7" width="10.29" height="17.51"/><path d="M126.67,310.95h-10.29c-.96,0-1.74-.78-1.74-1.74v-17.51c0-.96.78-1.74,1.74-1.74h10.29c.96,0,1.74.78,1.74,1.74v17.51c0,.96-.78,1.74-1.74,1.74ZM118.13,307.46h6.8v-14.02h-6.8v14.02Z"/><path class="cls-3" d="M115.81,327.89s-7.78-9.36.58-18.68h10.29s28.14-14.73,36.3-2.58c8.16,12.15-2.51,21.26-2.51,21.26h-44.65Z"/><path d="M160.46,329.64h-44.65c-.52,0-1.01-.23-1.34-.63-3.03-3.64-6.79-12.7.62-20.96.33-.37.8-.58,1.3-.58h9.87c3.65-1.85,29.69-14.43,38.17-1.81,8.92,13.28-2.71,23.46-2.83,23.56-.32.27-.72.42-1.13.42ZM116.68,326.15h43.09c1.81-1.8,8.09-9.11,1.75-18.54-5.97-8.89-26.6-.74-34.04,3.15-.25.13-.53.2-.81.2h-9.49c-5.49,6.71-1.89,13.18-.51,15.2Z"/><path class="cls-3" d="M100.85,327.89s7.78-9.36-.58-18.68h-10.29s-28.14-14.73-36.3-2.58c-8.16,12.15,2.51,21.26,2.51,21.26h44.65Z"/><path d="M100.85,329.64h-44.65c-.42,0-.82-.15-1.13-.42-.12-.1-11.75-10.28-2.83-23.56,8.47-12.61,34.52-.04,38.17,1.81h9.87c.5,0,.97.21,1.3.58,7.41,8.27,3.64,17.33.62,20.96-.33.4-.82.63-1.34.63ZM56.89,326.15h43.08c1.38-2.03,4.95-8.53-.5-15.2h-9.49c-.28,0-.56-.07-.81-.2-7.45-3.89-28.07-12.04-34.04-3.15-6.33,9.43-.06,16.74,1.75,18.55Z"/></g></svg>