<?xml version="1.0" encoding="UTF-8"?><svg id="_レイヤー_2" xmlns="http://www.w3.org/2000/svg" viewBox="0 0 200.97 318.6"><defs><style>.cls-1{fill:#fcee21;}.cls-2{fill:#ffdc7f;}.cls-3{fill:#fff;}.cls-4{fill:#ff0;}.cls-5{fill:#39b54a;}.cls-6{fill:#f7931e;}.cls-7{fill:#0080ff;}</style></defs><g id="_レイヤー_1-2"><rect class="cls-5" x="9.94" y="145.38" width="13.19" height="58.08" transform="translate(51.67 2.78) rotate(16.98)"/><path d="M14.36,205.86c-.17,0-.34-.02-.51-.08l-12.61-3.85c-.44-.14-.81-.44-1.03-.85-.22-.41-.26-.89-.13-1.33l16.96-55.54c.28-.92,1.26-1.44,2.18-1.16l12.61,3.85c.44.14.81.44,1.03.85.22.41.26.89.13,1.33l-16.96,55.54c-.23.75-.92,1.23-1.67,1.23ZM3.92,199.1l9.27,2.83,15.94-52.21-9.27-2.83-15.94,52.21Z"/><polygon class="cls-2" points="18.71 144.72 28.84 134.12 31.32 148.57 18.71 144.72"/><path d="M31.32,150.31c-.17,0-.34-.02-.51-.08l-12.61-3.85c-.58-.18-1.02-.64-1.18-1.23-.15-.59,0-1.21.43-1.65l10.13-10.6c.46-.48,1.14-.66,1.77-.46.63.19,1.1.72,1.21,1.37l2.48,14.45c.1.6-.11,1.2-.57,1.6-.32.29-.73.44-1.15.44ZM21.93,143.88l7.19,2.2-1.42-8.24-5.78,6.04Z"/><polygon points="27.08 139.88 24.18 139 28.84 134.12 29.98 140.77 27.08 139.88"/><path class="cls-3" d="M13.45,187.79l3.69,7.42c2.55,5.13,8.9,7.04,13.86,4.18l24.9-14.37-5.75-9.96-21.98,12.69c-.98.56-2.22.3-2.88-.61l-2.31-3.18s4.85-10.37-7.86-11.03c-12.71-.67-12.54,16.88-1.67,14.88Z"/><path d="M26.06,202.47c-1.13,0-2.27-.17-3.39-.51-3.12-.94-5.64-3.06-7.09-5.98l-3.14-6.31c-2.96.18-5.5-.92-7.11-3.13-2.03-2.8-2.19-6.88-.41-10.16,1.93-3.56,5.68-5.45,10.29-5.21,4.6.24,7.73,1.71,9.32,4.36,1.78,2.97.98,6.47.41,8.16l1.75,2.41c.14.19.4.25.6.13l21.98-12.69c.4-.23.87-.3,1.32-.17.45.12.83.41,1.06.81l5.75,9.96c.48.83.2,1.9-.64,2.38l-24.9,14.37c-1.81,1.04-3.8,1.57-5.82,1.57ZM13.45,186.05c.65,0,1.26.37,1.56.97l3.69,7.42c1.02,2.05,2.78,3.53,4.97,4.19,2.19.66,4.48.39,6.46-.75l23.39-13.5-4.01-6.94-20.47,11.82c-1.75,1.01-3.98.54-5.16-1.1l-2.31-3.18c-.37-.51-.44-1.19-.17-1.76.01-.03,1.58-3.51.14-5.89-.96-1.59-3.15-2.48-6.51-2.66-4.4-.24-6.3,2.03-7.04,3.4-1.14,2.09-1.07,4.74.17,6.44,1.05,1.44,2.77,1.99,4.98,1.58.11-.02.21-.03.32-.03Z"/><path class="cls-3" d="M193.02,187.79l-3.69,7.42c-2.55,5.13-8.9,7.04-13.86,4.18l-24.9-14.37,5.75-9.96,21.98,12.69c.98.56,2.22.3,2.88-.61l2.31-3.18s-7.03-8.58,1.93-13.3c11.26-5.93,20.35,9.77,7.6,17.14Z"/><path d="M180.41,202.47c-2.02,0-4.01-.53-5.82-1.57l-24.9-14.37c-.83-.48-1.12-1.55-.64-2.38l5.75-9.96c.23-.4.61-.69,1.06-.81.44-.12.92-.06,1.32.17l21.98,12.69c.2.11.46.06.6-.13l1.58-2.17c-1.07-1.67-2.76-4.98-2.06-8.44.54-2.66,2.33-4.81,5.31-6.39,6.5-3.42,12.46-.58,14.99,4,2.55,4.61,1.95,11.5-5.24,15.93l-3.47,6.96c-1.45,2.92-3.97,5.04-7.09,5.98-1.12.34-2.26.51-3.39.51ZM152.95,184.37l23.39,13.5c1.98,1.14,4.27,1.41,6.46.75,2.19-.66,3.95-2.15,4.97-4.19l3.69-7.42c.15-.31.39-.56.69-.73,5.62-3.26,6.26-8.12,4.39-11.49-1.66-3-5.59-5.09-10.31-2.6-2.04,1.07-3.19,2.38-3.52,3.98-.65,3.19,2.1,6.64,2.13,6.67.5.61.52,1.49.06,2.13l-2.31,3.18c-1.19,1.64-3.41,2.11-5.16,1.1l-20.47-11.82-4.01,6.94Z"/><path class="cls-3" d="M169.59,78.52c-2.35-2.43-5.84-3.16-9.36-2.32v-29.09H44.33v29.23c-3.7-1.05-7.42-.38-9.9,2.18-4.09,4.23-3.21,11.99,1.95,17.33,2.37,2.45,5.23,3.96,8.03,4.47,1.14,16.19,14.19,28.96,30.14,28.96h55.45c15.98,0,29.05-12.83,30.14-29.07,2.62-.6,5.27-2.07,7.48-4.36,5.17-5.34,6.04-13.1,1.95-17.33Z"/><path d="M130,131.03h-55.45c-16.25,0-29.96-12.76-31.76-29.29-2.8-.79-5.48-2.41-7.66-4.67-5.8-6-6.68-14.87-1.95-19.76,2.35-2.43,5.74-3.53,9.41-3.09v-27.11c0-.96.78-1.74,1.74-1.74h115.9c.96,0,1.74.78,1.74,1.74v27.05c3.46-.27,6.61.82,8.86,3.15h0c4.73,4.89,3.85,13.75-1.95,19.76-2.06,2.13-4.5,3.67-7.1,4.51-1.73,16.62-15.46,29.45-31.78,29.45ZM41,77.61c-2.1,0-3.96.73-5.31,2.13-3.43,3.55-2.56,10.24,1.95,14.9,2.02,2.09,4.54,3.5,7.1,3.97.78.14,1.37.8,1.42,1.59,1.08,15.33,13.55,27.34,28.4,27.34h55.45c14.89,0,27.37-12.05,28.4-27.44.05-.77.6-1.41,1.35-1.58,2.38-.55,4.74-1.93,6.62-3.88,4.51-4.67,5.39-11.35,1.95-14.9-1.83-1.9-4.64-2.56-7.7-1.84-.52.12-1.07,0-1.49-.33-.42-.33-.66-.83-.66-1.37v-27.34H46.07v27.49c0,.55-.26,1.06-.69,1.39-.44.33-1,.44-1.53.29-.98-.28-1.94-.42-2.85-.42Z"/><circle class="cls-3" cx="91.89" cy="79.85" r="10.12"/><path d="M91.89,91.72c-6.54,0-11.87-5.32-11.87-11.87s5.32-11.87,11.87-11.87,11.87,5.32,11.87,11.87-5.32,11.87-11.87,11.87ZM91.89,71.48c-4.62,0-8.38,3.76-8.38,8.38s3.76,8.38,8.38,8.38,8.38-3.76,8.38-8.38-3.76-8.38-8.38-8.38Z"/><circle class="cls-3" cx="112.13" cy="79.85" r="10.12"/><path d="M112.13,91.72c-6.54,0-11.87-5.32-11.87-11.87s5.32-11.87,11.87-11.87,11.87,5.32,11.87,11.87-5.32,11.87-11.87,11.87ZM112.13,71.48c-4.62,0-8.38,3.76-8.38,8.38s3.76,8.38,8.38,8.38,8.38-3.76,8.38-8.38-3.76-8.38-8.38-8.38Z"/><circle cx="91.89" cy="79.85" r="2.57"/><circle cx="112.12" cy="79.85" r="2.57"/><path d="M102.32,108.41c-9.92,0-19.23-4.39-25.55-12.05-.61-.74-.51-1.84.24-2.46.75-.61,1.84-.51,2.46.24,5.65,6.85,13.98,10.78,22.85,10.78s16.95-3.82,22.59-10.47c.62-.73,1.72-.83,2.46-.2.73.62.82,1.72.2,2.46-6.31,7.43-15.51,11.7-25.25,11.7Z"/><rect class="cls-3" x="102.18" y="280.66" width="10.29" height="17.51"/><path d="M112.47,299.92h-10.29c-.96,0-1.74-.78-1.74-1.74v-17.51c0-.96.78-1.74,1.74-1.74h10.29c.96,0,1.74.78,1.74,1.74v17.51c0,.96-.78,1.74-1.74,1.74ZM103.93,296.43h6.8v-14.02h-6.8v14.02Z"/><rect class="cls-3" x="91.9" y="280.66" width="10.29" height="17.51"/><path d="M102.19,299.92h-10.29c-.96,0-1.74-.78-1.74-1.74v-17.51c0-.96.78-1.74,1.74-1.74h10.29c.96,0,1.74.78,1.74,1.74v17.51c0,.96-.78,1.74-1.74,1.74ZM93.64,296.43h6.8v-14.02h-6.8v14.02Z"/><path d="M165.03,42.45c0-14.31-13.22-25.92-29.54-25.92-2.65,0-5.22.31-7.67.89-8.94-9.41-24.8-15.68-42.9-15.68-34.73,0-50.57,20.33-50.57,33.31,0,7.45,3.71,14.33,9.98,19.87h117.06c2.32-3.7,3.65-7.95,3.65-12.48Z"/><path d="M162.35,56.68H43.67l-.5-.44c-6.91-6.12-10.57-13.44-10.57-21.18C32.6,20.92,49.23,0,84.92,0c17.59,0,33.74,5.78,43.47,15.51,2.32-.48,4.71-.72,7.1-.72,17.25,0,31.28,12.41,31.28,27.66,0,4.69-1.35,9.32-3.91,13.4l-.51.82ZM45,53.19h115.4c1.89-3.32,2.89-7.01,2.89-10.73,0-13.33-12.47-24.17-27.79-24.17-2.46,0-4.9.28-7.27.84l-.98.23-.69-.73c-9-9.48-24.56-15.14-41.64-15.14-19.09,0-30.77,6.2-37.21,11.4-8.56,6.92-11.62,14.95-11.62,20.17,0,6.53,3.08,12.79,8.91,18.13Z"/><path d="M126.99,18.84c-.16,0-.32-.02-.48-.07-.93-.26-1.46-1.23-1.2-2.16,2.71-9.5-2.91-11.79-2.97-11.81-.9-.35-1.35-1.36-1-2.26.35-.9,1.36-1.34,2.26-1,.09.03,8.64,3.49,5.07,16.02-.22.77-.92,1.27-1.68,1.27Z"/><path d="M125.5,23.82c-.17,0-.35-.02-.52-.08-.92-.29-1.43-1.27-1.14-2.19,2.98-9.55,9.66-18.61,9.94-18.99.58-.77,1.67-.94,2.44-.36.77.57.94,1.67.36,2.44-.07.09-6.61,8.97-9.41,17.95-.23.75-.92,1.22-1.67,1.22Z"/><path d="M124.17,27.33c-.16,0-.33-.02-.5-.07-.92-.27-1.45-1.24-1.18-2.17,5.28-17.88,19.97-17.11,20.11-17.11.96.06,1.69.9,1.62,1.86-.06.96-.89,1.7-1.85,1.62-.52-.04-12.07-.5-16.54,14.62-.22.76-.92,1.25-1.67,1.25Z"/><polygon class="cls-3" points="130.33 57.58 123.94 46.39 117.55 57.58 130.33 57.58"/><rect class="cls-3" x="94.6" y="129.28" width="14.81" height="13.94"/><path d="M109.41,144.97h-14.81c-.96,0-1.74-.78-1.74-1.74v-13.94c0-.96.78-1.74,1.74-1.74h14.81c.96,0,1.74.78,1.74,1.74v13.94c0,.96-.78,1.74-1.74,1.74ZM96.35,141.48h11.32v-10.45h-11.32v10.45Z"/><polygon class="cls-6" points="113.11 145.91 102.01 140.91 90.91 145.91 39.69 174.64 52.08 197.99 64.79 192.43 64.79 237.71 102.01 237.71 139.22 237.71 139.22 192.43 151.94 197.99 164.33 174.64 113.11 145.91"/><path d="M139.22,239.45h-74.43c-.96,0-1.74-.78-1.74-1.74v-42.61l-10.27,4.49c-.84.37-1.81.03-2.24-.78l-12.39-23.35c-.44-.84-.14-1.88.69-2.34l51.22-28.72s.09-.05.14-.07l11.1-5c.46-.21.98-.21,1.43,0l11.1,5s.09.04.14.07l51.22,28.72c.83.46,1.13,1.5.69,2.34l-12.39,23.35c-.43.81-1.4,1.15-2.24.78l-10.27-4.49v42.61c0,.96-.78,1.74-1.74,1.74ZM66.54,235.96h70.94v-43.54c0-.59.3-1.14.79-1.46.49-.32,1.12-.37,1.65-.14l11.23,4.91,10.83-20.42-49.67-27.85-10.31-4.65-10.31,4.65-49.67,27.85,10.83,20.42,11.23-4.91c.54-.24,1.16-.18,1.65.14.49.32.79.87.79,1.46v43.54Z"/><rect class="cls-1" x="85.91" y="138.23" width="32.19" height="10" rx="4.27" ry="4.27"/><path d="M113.11,149.97h-22.19c-3.72,0-6.74-3.03-6.74-6.74s3.02-6.74,6.74-6.74h22.19c3.72,0,6.74,3.02,6.74,6.74s-3.03,6.74-6.74,6.74ZM90.91,139.97c-1.79,0-3.25,1.46-3.25,3.25s1.46,3.26,3.25,3.26h22.19c1.79,0,3.26-1.46,3.26-3.26s-1.46-3.25-3.26-3.25h-22.19Z"/><circle class="cls-4" cx="102.18" cy="172.02" r="6.42"/><path d="M102.19,180.18c-4.5,0-8.16-3.66-8.16-8.16s3.66-8.16,8.16-8.16,8.16,3.66,8.16,8.16-3.66,8.16-8.16,8.16ZM102.19,167.35c-2.58,0-4.67,2.1-4.67,4.67s2.1,4.67,4.67,4.67,4.67-2.1,4.67-4.67-2.1-4.67-4.67-4.67Z"/><path class="cls-7" d="M139.58,237.71h-74.78s-16.87,19.95,0,42.95h74.78c16.87-23,0-42.95,0-42.95Z"/><path d="M140.46,282.4H63.91l-.52-.71c-9.12-12.44-8.63-24.04-6.6-31.59,2.19-8.14,6.5-13.31,6.68-13.52l.52-.62h76.4l.52.62c.18.21,17.56,21.27.07,45.11l-.52.71ZM65.69,278.92h72.99c13.63-19.35,2.63-36.03.05-39.46h-73.09c-2.58,3.43-13.58,20.11.05,39.46Z"/><path d="M102.19,282.4c-.96,0-1.74-.78-1.74-1.74v-21.48c0-.96.78-1.74,1.74-1.74s1.74.78,1.74,1.74v21.48c0,.96-.78,1.74-1.74,1.74Z"/><path class="cls-7" d="M102.18,298.17h28.91c8.82,0,15.98,7.16,15.98,15.98v2.71h-44.89v-18.68h0Z"/><path d="M148.82,318.6h-48.38v-22.17h27.95c11.26,0,20.43,9.16,20.43,20.43v1.74ZM103.93,315.11h41.31c-.88-8.52-8.1-15.2-16.85-15.2h-24.46v15.2Z"/><path class="cls-7" d="M57.3,298.17h44.89v2.71c0,8.82-7.16,15.98-15.98,15.98h-28.91v-18.68h0Z" transform="translate(159.48 615.03) rotate(-180)"/><path d="M103.93,318.6h-48.38v-1.74c0-11.26,9.16-20.43,20.43-20.43h27.95v22.17ZM59.13,315.11h41.31v-15.2h-24.46c-8.75,0-15.97,6.67-16.85,15.2Z"/><path d="M106.75,65.82c-.64,0-1.26-.35-1.57-.96-.44-.86-.09-1.92.77-2.36,3.86-1.95,8.47-1.96,12.34-.03.87.43,1.22,1.49.79,2.35-.43.87-1.49,1.22-2.35.79-2.88-1.44-6.32-1.43-9.19.02-.25.13-.52.19-.79.19Z"/><path d="M86.51,65.82c-.64,0-1.26-.35-1.57-.96-.44-.86-.09-1.92.77-2.36,3.85-1.95,8.47-1.96,12.34-.03.87.43,1.22,1.49.79,2.35-.43.87-1.49,1.22-2.35.79-2.88-1.44-6.31-1.43-9.19.02-.25.13-.52.19-.79.19Z"/></g></svg>