<?xml version="1.0" encoding="UTF-8"?><svg id="_レイヤー_2" xmlns="http://www.w3.org/2000/svg" xmlns:xlink="http://www.w3.org/1999/xlink" viewBox="0 0 220.41 308.4"><defs><style>.cls-1{fill:none;}.cls-2{fill:#fff;}.cls-3{fill:#ff0;}.cls-4{fill:#b3b3b3;}.cls-5{clip-path:url(#clippath);}</style><clipPath id="clippath"><rect class="cls-1" x="102.57" y="184.97" width="15.28" height="15.28"/></clipPath></defs><g id="_レイヤー_1-2"><path class="cls-4" d="M37.68,157.84S5.45,171.7,1.65,214.47l28.8,6.06,26.9-46.52-19.67-16.17Z"/><path d="M30.45,222.19c-.11,0-.23-.01-.34-.04l-28.8-6.06c-.82-.17-1.38-.93-1.3-1.76,2-22.58,11.93-37.13,19.9-45.36,8.66-8.95,16.78-12.5,17.12-12.64.57-.25,1.22-.15,1.7.24l19.67,16.17c.62.51.78,1.4.38,2.1l-26.9,46.52c-.3.52-.85.82-1.43.82ZM3.44,213.16l26.19,5.51,25.6-44.28-17.77-14.61c-5.06,2.58-30.17,17.16-34.01,53.37Z"/><path class="cls-2" d="M19.86,232.32l-7.77-1.65c-4.56-.97-8.1-4.55-9.02-9.12l-1.42-7.07,14.54,3.06,3.34.7.32,14.08Z"/><path d="M19.86,233.97c-.11,0-.23-.01-.34-.04l-7.77-1.65c-5.21-1.11-9.25-5.19-10.29-10.41l-1.42-7.07c-.11-.54.06-1.11.46-1.5.39-.39.96-.56,1.5-.44l17.89,3.77c.75.16,1.29.81,1.31,1.58l.32,14.08c.01.5-.21.99-.6,1.31-.3.25-.67.38-1.05.38ZM3.76,216.6l.93,4.61c.79,3.93,3.83,7,7.75,7.83l5.73,1.22-.24-10.69-14.16-2.98Z"/><path class="cls-4" d="M182.73,157.84s32.23,13.85,36.03,56.63l-28.8,6.06-26.9-46.52,19.67-16.17Z"/><path d="M189.96,222.19c-.58,0-1.13-.31-1.43-.82l-26.9-46.52c-.4-.7-.24-1.59.38-2.1l19.67-16.17c.48-.39,1.13-.49,1.7-.24.33.14,33.18,14.74,37.02,58,.07.83-.49,1.59-1.3,1.76l-28.8,6.06c-.11.02-.23.04-.34.04ZM165.19,174.4l25.6,44.28,26.18-5.51c-3.84-36.29-28.95-50.8-34.01-53.38l-17.78,14.61Z"/><path class="cls-2" d="M200.55,232.32l7.77-1.65c4.56-.97,8.1-4.55,9.02-9.12l1.42-7.07-14.54,3.06-3.34.7-.32,14.08Z"/><path d="M200.55,233.97c-.38,0-.75-.13-1.05-.38-.39-.32-.61-.8-.6-1.31l.32-14.08c.02-.77.56-1.42,1.31-1.58l17.89-3.77c.54-.12,1.11.05,1.5.44.39.39.57.95.46,1.5l-1.42,7.07c-1.05,5.22-5.09,9.31-10.29,10.41l-7.77,1.65c-.11.02-.23.04-.34.04ZM202.49,219.58l-.25,10.69,5.73-1.22c3.92-.83,6.96-3.91,7.75-7.83l.93-4.61-14.16,2.98Z"/><path class="cls-4" d="M46.81,254.94h52.11v36.1c0,8.67-7.04,15.7-15.7,15.7h-36.41v-51.8h0Z"/><path d="M83.22,308.4h-36.41c-.91,0-1.65-.74-1.65-1.65v-51.8c0-.91.74-1.65,1.65-1.65h52.11c.91,0,1.65.74,1.65,1.65v36.1c0,9.57-7.79,17.35-17.35,17.35ZM48.46,305.09h34.76c7.75,0,14.05-6.3,14.05-14.05v-34.45h-48.81v48.5Z"/><path class="cls-4" d="M121.48,254.94h52.11v51.8h-36.41c-8.67,0-15.7-7.04-15.7-15.7v-36.1h0Z"/><path d="M173.6,308.4h-36.41c-9.57,0-17.35-7.79-17.35-17.35v-36.1c0-.91.74-1.65,1.65-1.65h52.11c.91,0,1.65.74,1.65,1.65v51.8c0,.91-.74,1.65-1.65,1.65ZM123.13,256.59v34.45c0,7.75,6.3,14.05,14.05,14.05h34.76v-48.5h-48.81Z"/><path class="cls-4" d="M203.01,222.94c0,60.5-41.52,55.66-92.74,55.66s-92.74,4.84-92.74-55.66,41.52-109.55,92.74-109.55,92.74,49.05,92.74,109.55Z"/><path d="M130.82,280.34c-3.25,0-6.57-.02-9.94-.04-6.96-.05-14.26-.05-21.22,0-29.67.19-55.3.37-70.25-14.48-9.1-9.04-13.53-23.07-13.53-42.88,0-61.32,42.34-111.2,94.39-111.2s94.39,49.89,94.39,111.2c0,19.81-4.43,33.83-13.53,42.88-13.26,13.17-34.9,14.53-60.31,14.53ZM110.27,276.95c3.6,0,7.14.02,10.63.05,28.93.2,53.92.36,67.9-13.52,8.45-8.39,12.56-21.65,12.56-40.54,0-59.5-40.86-107.9-91.09-107.9S19.18,163.44,19.18,222.94c0,18.88,4.11,32.14,12.56,40.54,13.98,13.89,38.97,13.72,67.9,13.52,3.49-.02,7.04-.05,10.63-.05Z"/><path class="cls-4" d="M170.74,1.8c-44.66,3.61-31.62,31.62-31.62,31.62,0,0,28.02,13.04,31.62-31.62Z"/><path d="M147.91,36.85c-5.23,0-9.22-1.82-9.48-1.94l-.55-.25-.25-.55c-.19-.42-4.68-10.3.71-19.56,4.78-8.21,15.64-13.06,32.28-14.4l1.93-.16-.16,1.93c-1.34,16.63-6.19,27.49-14.4,32.28-3.44,2.01-6.98,2.64-10.07,2.64ZM140.39,32.16c2.06.78,9.36,3.05,15.97-.81,6.9-4.04,11.12-13.36,12.57-27.72-14.38,1.45-23.71,5.68-27.74,12.6-3.86,6.63-1.58,13.88-.8,15.93Z"/><path class="cls-4" d="M49.67,1.8c44.66,3.61,31.62,31.62,31.62,31.62,0,0-28.02,13.04-31.62-31.62Z"/><path d="M72.5,36.85c-3.1,0-6.63-.64-10.07-2.64-8.21-4.78-13.06-15.64-14.4-32.28l-.16-1.93,1.93.16c16.63,1.34,27.49,6.19,32.28,14.4,5.39,9.25.9,19.14.71,19.56l-.25.55-.55.25c-.26.12-4.26,1.94-9.48,1.94ZM51.49,3.62c1.44,14.36,5.67,23.68,12.57,27.72,6.6,3.86,13.9,1.59,15.97.81.78-2.06,3.05-9.36-.81-15.96-4.04-6.9-13.36-11.12-27.72-12.57Z"/><g id="_グループ_370"><g class="cls-5"><g id="_グループ_369"><path id="_パス_1968" class="cls-3" d="M116.21,192.61c0,3.32-2.69,6.01-6.01,6.01s-6.01-2.69-6.01-6.01,2.69-6.01,6.01-6.01,6.01,2.69,6.01,6.01h0"/><path id="_パス_1969" d="M110.21,200.25c-4.22,0-7.64-3.42-7.64-7.64s3.42-7.64,7.64-7.64,7.64,3.42,7.64,7.64c0,4.22-3.42,7.63-7.64,7.64M110.21,188.23c-2.42,0-4.37,1.96-4.37,4.37s1.96,4.37,4.37,4.37,4.37-1.96,4.37-4.37h0c0-2.41-1.96-4.37-4.37-4.37"/></g></g></g><path class="cls-4" d="M172.96,108.78v-44.23c0-34.66-28.1-62.76-62.76-62.76h0c-34.66,0-62.76,28.1-62.76,62.76v44.23c-2.92,4.66-4.54,9.72-4.54,15.02,0,22.97,30.13,41.59,67.3,41.59s67.3-18.62,67.3-41.59c0-5.3-1.62-10.36-4.54-15.02Z"/><path d="M110.2,167.04c-38.02,0-68.95-19.4-68.95-43.24,0-5.33,1.53-10.54,4.54-15.49v-43.76C45.8,29.04,74.69.15,110.2.15s64.41,28.89,64.41,64.41v43.76c3.01,4.95,4.54,10.16,4.54,15.49,0,23.84-30.93,43.24-68.95,43.24ZM110.21,3.45c-33.69,0-61.11,27.41-61.11,61.11v44.23c0,.31-.09.61-.25.88-2.85,4.54-4.29,9.3-4.29,14.14,0,22.02,29.45,39.94,65.65,39.94s65.65-17.92,65.65-39.94c0-4.85-1.44-9.6-4.29-14.14-.16-.26-.25-.57-.25-.88v-44.23c0-33.69-27.41-61.11-61.11-61.11Z"/><path class="cls-2" d="M110.2,49.38s-21.44,56.95-18.77,65.23c1.68,5.22,8.38,12.04,18.77,12.04s17.09-6.82,18.77-12.04c2.67-8.28-18.77-65.23-18.77-65.23Z"/><path d="M110.2,128.31c-11.81,0-18.64-7.88-20.34-13.18-2.77-8.58,16.58-60.44,18.8-66.32.24-.64.86-1.07,1.54-1.07s1.3.43,1.54,1.07c2.22,5.88,21.56,57.74,18.8,66.32-1.71,5.3-8.53,13.18-20.34,13.18ZM110.2,54.11c-8.12,22.03-18.91,54.71-17.2,60,1.36,4.21,7.23,10.9,17.2,10.9s15.85-6.68,17.2-10.9c1.7-5.29-9.08-37.97-17.2-60Z"/><circle class="cls-2" cx="73.86" cy="97.16" r="10.11"/><path d="M73.86,108.92c-6.48,0-11.76-5.28-11.76-11.76s5.28-11.76,11.76-11.76,11.76,5.28,11.76,11.76-5.28,11.76-11.76,11.76ZM73.86,88.7c-4.67,0-8.46,3.79-8.46,8.46s3.8,8.46,8.46,8.46,8.46-3.79,8.46-8.46-3.8-8.46-8.46-8.46Z"/><circle cx="73.86" cy="97.16" r="2.92"/><circle class="cls-2" cx="146.55" cy="97.16" r="10.11"/><path d="M146.55,108.92c-6.48,0-11.76-5.28-11.76-11.76s5.28-11.76,11.76-11.76,11.76,5.28,11.76,11.76-5.28,11.76-11.76,11.76ZM146.55,88.7c-4.67,0-8.46,3.79-8.46,8.46s3.8,8.46,8.46,8.46,8.46-3.79,8.46-8.46-3.8-8.46-8.46-8.46Z"/><circle cx="146.55" cy="97.16" r="2.92"/><ellipse cx="100.86" cy="133.71" rx="2.03" ry="4.2"/><ellipse cx="119.68" cy="133.71" rx="2.03" ry="4.2"/><path d="M110.21,156.88c-2.19,0-4.26-.85-5.81-2.41l-5.3-5.3c-.64-.64-.64-1.69,0-2.33.64-.64,1.69-.64,2.33,0l5.3,5.3c.93.93,2.16,1.44,3.48,1.44s2.55-.51,3.48-1.44l5.42-5.42c.64-.64,1.69-.64,2.33,0,.64.64.64,1.69,0,2.33l-5.42,5.42c-1.55,1.55-3.61,2.41-5.81,2.41Z"/><path class="cls-2" d="M158.66,293.66h12.24c7.22,0,13.08,5.86,13.08,13.08h-25.32v-13.08h0Z"/><path d="M183.99,308.4h-25.32c-.91,0-1.65-.74-1.65-1.65v-13.08c0-.91.74-1.65,1.65-1.65h12.24c8.12,0,14.73,6.61,14.73,14.73,0,.91-.74,1.65-1.65,1.65ZM160.31,305.09h21.9c-.8-5.52-5.57-9.78-11.31-9.78h-10.59v9.78Z"/><path class="cls-2" d="M146.42,293.66h12.24v13.08h-25.32c0-7.22,5.86-13.08,13.08-13.08Z"/><path d="M158.66,308.4h-25.32c-.91,0-1.65-.74-1.65-1.65,0-8.12,6.61-14.73,14.73-14.73h12.24c.91,0,1.65.74,1.65,1.65v13.08c0,.91-.74,1.65-1.65,1.65ZM135.11,305.09h21.9v-9.78h-10.59c-5.74,0-10.51,4.26-11.31,9.78Z"/><path class="cls-2" d="M61.75,293.66h12.24c7.22,0,13.08,5.86,13.08,13.08h-25.32v-13.08h0Z"/><path d="M87.07,308.4h-25.32c-.91,0-1.65-.74-1.65-1.65v-13.08c0-.91.74-1.65,1.65-1.65h12.24c8.12,0,14.73,6.61,14.73,14.73,0,.91-.74,1.65-1.65,1.65ZM63.4,305.09h21.9c-.8-5.52-5.57-9.78-11.31-9.78h-10.59v9.78Z"/><path class="cls-2" d="M49.51,293.66h12.24v13.08h-25.32c0-7.22,5.86-13.08,13.08-13.08Z"/><path d="M61.75,308.4h-25.32c-.91,0-1.65-.74-1.65-1.65,0-8.12,6.61-14.73,14.73-14.73h12.24c.91,0,1.65.74,1.65,1.65v13.08c0,.91-.74,1.65-1.65,1.65ZM38.19,305.09h21.9v-9.78h-10.59c-5.74,0-10.51,4.26-11.31,9.78Z"/></g></svg>