<?xml version="1.0" encoding="UTF-8"?><svg id="_レイヤー_2" xmlns="http://www.w3.org/2000/svg" viewBox="0 0 211.84 264.34"><defs><style>.cls-1{fill:#ffdab4;}.cls-2{fill:#a67c52;}.cls-3{fill:#ed1c24;}.cls-4{fill:#fff;}.cls-5{fill:#ff0;}.cls-6{fill:#39b54a;}.cls-7{fill:#fffb15;}</style></defs><g id="_レイヤー_1-2"><polygon class="cls-2" points="168.3 54.93 159.74 53.09 164.88 29.16 169.16 30.08 168.3 54.93"/><path d="M168.3,56.67c-.12,0-.25-.01-.37-.04l-8.56-1.84c-.45-.1-.85-.37-1.1-.76s-.34-.86-.24-1.31l5.14-23.93c.1-.45.37-.85.76-1.1.39-.25.86-.34,1.31-.24l4.28.92c.83.18,1.41.92,1.38,1.77l-.86,24.85c-.02.52-.26,1-.67,1.32-.31.24-.69.37-1.07.37ZM161.81,51.75l4.82,1.03.74-21.31-1.14-.25-4.41,20.52Z"/><polygon class="cls-2" points="149.98 29.11 147.37 37.46 130.93 32.32 132.24 28.14 149.98 29.11"/><path d="M147.37,39.21c-.17,0-.35-.02-.52-.08l-16.44-5.15c-.44-.14-.81-.45-1.02-.86s-.26-.89-.12-1.33l1.31-4.18c.24-.76.96-1.24,1.76-1.22l17.75.97c.54.03,1.03.31,1.34.75.31.44.39,1,.23,1.52l-2.61,8.35c-.23.75-.92,1.22-1.67,1.22ZM133.11,31.17l13.11,4.1,1.42-4.55-14.15-.77-.38,1.22Z"/><polygon class="cls-2" points="210.1 111.52 200.43 117.77 132.51 12.68 137.35 9.56 210.1 111.52"/><path d="M200.43,119.51c-.57,0-1.13-.28-1.47-.8L131.05,13.63c-.25-.39-.34-.86-.24-1.31.1-.45.37-.85.76-1.1l4.83-3.12c.78-.51,1.82-.31,2.37.45l72.75,101.96c.28.39.38.87.29,1.34-.09.47-.37.88-.77,1.14l-9.67,6.25c-.29.19-.62.28-.95.28ZM134.93,13.2l66.03,102.15,6.67-4.31L136.89,11.93l-1.97,1.27Z"/><ellipse class="cls-6" cx="171.63" cy="15.92" rx="14.85" ry="8.61" transform="translate(93.93 169.79) rotate(-68.51)"/><path d="M168.13,31.85c-.89,0-1.76-.16-2.58-.49-2.74-1.08-4.57-3.79-5.16-7.64-.53-3.5.04-7.62,1.6-11.59h0c1.56-3.97,3.95-7.37,6.73-9.57,3.05-2.42,6.24-3.15,8.98-2.07,2.74,1.08,4.57,3.79,5.16,7.64.53,3.5-.04,7.62-1.6,11.6-1.56,3.97-3.95,7.37-6.73,9.57-2.13,1.69-4.33,2.56-6.4,2.56ZM165.25,13.41c-1.34,3.41-1.84,6.89-1.4,9.79.22,1.49.91,4.1,2.98,4.91,2.08.81,4.36-.63,5.53-1.56,2.3-1.83,4.31-4.71,5.65-8.12,1.34-3.41,1.84-6.89,1.4-9.79-.22-1.49-.91-4.1-2.98-4.91-2.07-.81-4.36.63-5.53,1.56-2.3,1.83-4.31,4.71-5.65,8.12h0Z"/><line class="cls-6" x1="171.63" y1="15.92" x2="166.19" y2="29.74"/><path d="M166.19,31.48c-.21,0-.43-.04-.64-.12-.9-.35-1.34-1.37-.98-2.26l5.44-13.82c.35-.9,1.37-1.34,2.26-.98.9.35,1.34,1.37.98,2.26l-5.44,13.82c-.27.69-.93,1.11-1.62,1.11Z"/><path class="cls-1" d="M91.53,255.87v-20.71h-7.4v27.44h29.16c0-5.49-4.74-9.79-10.2-9.25l-11.56,2.52Z"/><path d="M113.29,264.34h-29.16c-.96,0-1.74-.78-1.74-1.74v-27.44c0-.96.78-1.74,1.74-1.74h7.4c.96,0,1.74.78,1.74,1.74v18.54l9.45-2.06c.07-.01.13-.02.2-.03,3.09-.3,6.19.72,8.49,2.81,2.3,2.09,3.62,5.07,3.62,8.18,0,.96-.78,1.74-1.74,1.74ZM85.87,260.85h25.47c-.34-1.47-1.12-2.8-2.28-3.85-1.57-1.43-3.58-2.11-5.71-1.93l-11.46,2.5c-.51.11-1.06-.02-1.47-.35-.41-.33-.65-.83-.65-1.36v-18.97h-3.91v23.95Z"/><path class="cls-1" d="M76.73,235.16v20.71l-11.56-2.52c-5.47-.54-10.2,3.76-10.2,9.25h0s21.76,0,21.76,0h7.4v-27.44h-7.4Z"/><path d="M84.13,264.34h-29.16c-.96,0-1.74-.78-1.74-1.74,0-3.11,1.32-6.09,3.62-8.18,2.3-2.09,5.39-3.11,8.49-2.81.07,0,.14.02.2.03l9.45,2.06v-18.54c0-.96.78-1.74,1.74-1.74h7.4c.96,0,1.74.78,1.74,1.74v27.44c0,.96-.78,1.74-1.74,1.74ZM56.91,260.85h25.47v-23.95h-3.91v18.97c0,.53-.24,1.03-.65,1.36-.41.33-.96.45-1.47.35l-11.46-2.5c-2.12-.18-4.14.5-5.71,1.93-1.16,1.05-1.94,2.38-2.28,3.85Z"/><path class="cls-3" d="M62.27,59.64s4.99-37.24,27.28-31.48c11.42,2.95,9.2,15.44,9.2,15.44,0,0,5.71-10.89,15.54-7.88,9.83,3,6.34,16.69,6.34,16.69,0,0,6.63-9.51,13.45-1.95,6.82,7.56-4.51,31.48-4.51,31.48"/><path d="M129.56,83.68c-.25,0-.5-.05-.75-.17-.87-.41-1.24-1.45-.83-2.32,3.01-6.36,9.74-24.07,4.79-29.56-1.5-1.67-3.01-2.45-4.59-2.34-3.34.2-6.11,4.08-6.14,4.12-.48.69-1.39.93-2.16.58-.76-.35-1.17-1.2-.96-2.01.12-.49,2.95-12.11-5.16-14.59-8.31-2.55-13.28,6.63-13.49,7.03-.4.76-1.3,1.12-2.11.83-.81-.28-1.3-1.11-1.15-1.95.08-.44,1.77-10.94-7.91-13.44-4.35-1.13-8.14-.55-11.57,1.76-10.58,7.12-13.51,28.05-13.54,28.26-.13.96-1.01,1.62-1.96,1.5-.96-.13-1.63-1.01-1.5-1.96.12-.92,3.16-22.69,15.04-30.69,4.25-2.86,9.1-3.62,14.4-2.25,7.1,1.83,9.81,7.14,10.51,11.85,3.24-3.31,8.21-6.14,14.3-4.28,6.62,2.02,8.3,8.33,8.2,13.63,1.38-.96,3.08-1.75,4.97-1.87,2.67-.18,5.17,1,7.41,3.48,7.38,8.19-3.02,30.84-4.23,33.39-.3.63-.92,1-1.58,1Z"/><polygon class="cls-4" points="78.91 55.04 67.71 57.46 51.98 66.04 40.63 78.68 35.17 90.19 32.59 106.33 32.59 114.22 30.02 120.27 22.01 129.71 9.15 147.18 3.44 160.56 1.85 174.09 4.49 184.27 10.31 192.65 20.64 201.83 27.01 203.85 32.59 210.06 47.16 225.3 62.5 234.78 81.16 237.5 95.61 237.5 105.73 233.64 119.6 226.37 130.25 218.47 139.1 204.32 142.27 197.3 148.13 196.68 163.45 185.92 177.41 169.81 186.56 152.66 190.71 138.36 192.64 120.16 191.19 98.88 187.62 81.93 183.4 68.92 181.35 73.42 178.8 81.93 174.96 89.57 169.07 97.48 163.31 105.55 154.3 112.5 145.54 117.77 135.69 123.18 135.69 115.89 135.16 98.9 130.82 83.19 124.54 74.32 116.53 66.23 107.24 60.24 95.56 56.05 86.18 54.82 78.91 55.04"/><path d="M74.02,104.73c-.45,0-.89-.17-1.23-.51l-13.94-13.94c-.68-.68-.68-1.79,0-2.47s1.79-.68,2.47,0l13.94,13.94c.68.68.68,1.79,0,2.47-.34.34-.79.51-1.23.51Z"/><path d="M94.26,104.73c-.45,0-.89-.17-1.23-.51-.68-.68-.68-1.79,0-2.47l13.94-13.94c.68-.68,1.79-.68,2.47,0s.68,1.79,0,2.47l-13.94,13.94c-.34.34-.79.51-1.23.51Z"/><circle class="cls-4" cx="74.02" cy="102.99" r="10.12"/><path d="M74.02,114.85c-6.54,0-11.87-5.32-11.87-11.87s5.32-11.87,11.87-11.87,11.87,5.32,11.87,11.87-5.32,11.87-11.87,11.87ZM74.02,94.61c-4.62,0-8.38,3.76-8.38,8.38s3.76,8.38,8.38,8.38,8.38-3.76,8.38-8.38-3.76-8.38-8.38-8.38Z"/><circle class="cls-4" cx="94.26" cy="102.99" r="10.12"/><path d="M94.26,114.85c-6.54,0-11.87-5.32-11.87-11.87s5.32-11.87,11.87-11.87,11.87,5.32,11.87,11.87-5.32,11.87-11.87,11.87ZM94.26,94.61c-4.62,0-8.38,3.76-8.38,8.38s3.76,8.38,8.38,8.38,8.38-3.76,8.38-8.38-3.76-8.38-8.38-8.38Z"/><circle cx="74.02" cy="102.99" r="2.57"/><circle cx="94.25" cy="102.99" r="2.57"/><polygon class="cls-7" points="84.14 117.82 74.02 128.55 94.25 128.55 84.14 117.82"/><path d="M94.25,130.29h-20.23c-.7,0-1.33-.41-1.6-1.05-.28-.64-.15-1.38.33-1.89l10.12-10.73c.33-.35.79-.55,1.27-.55h0c.48,0,.94.2,1.27.55l10.11,10.73c.48.51.61,1.25.33,1.89s-.91,1.05-1.6,1.05ZM78.06,126.8h12.15l-6.07-6.44-6.08,6.44Z"/><polygon class="cls-7" points="84.14 136.49 74.02 128.55 94.25 128.55 84.14 136.49"/><path d="M84.14,138.23c-.38,0-.76-.12-1.08-.37l-10.12-7.94c-.58-.46-.82-1.24-.57-1.94.24-.7.91-1.18,1.65-1.18h20.23c.74,0,1.41.47,1.65,1.17.24.7.01,1.48-.57,1.94l-10.11,7.94c-.32.25-.7.37-1.08.37ZM79.07,130.29l5.07,3.98,5.06-3.98h-10.13Z"/><path class="cls-3" d="M95.47,152.78l-11.34-9.28-11.34,9.28c-2.33,1.9-2.5,5.4-.38,7.53,1.99,1.99,5.21,1.99,7.19,0l4.52-4.52,4.52,4.52c1.99,1.99,5.21,1.99,7.19,0,2.13-2.13,1.95-5.63-.38-7.53Z"/><path d="M92.25,163.55c-1.83,0-3.54-.71-4.83-2l-3.29-3.29-3.29,3.29c-1.29,1.29-3,2-4.83,2s-3.54-.71-4.83-2c-1.36-1.36-2.09-3.24-1.99-5.17.1-1.92,1.01-3.73,2.5-4.95l11.34-9.28c.64-.52,1.57-.52,2.21,0l11.34,9.28c1.49,1.22,2.4,3.02,2.5,4.95.1,1.92-.63,3.81-1.99,5.17-1.29,1.29-3,2-4.83,2ZM84.13,154.05c.45,0,.89.17,1.23.51l4.52,4.52c1.26,1.26,3.46,1.26,4.72,0,.68-.68,1.02-1.57.97-2.53-.05-.96-.48-1.81-1.22-2.42h0l-10.23-8.37-10.23,8.37c-.74.61-1.17,1.46-1.22,2.42-.05.95.3,1.85.97,2.53,1.26,1.26,3.46,1.26,4.72,0l4.52-4.52c.34-.34.79-.51,1.23-.51Z"/><path d="M84.13,239.24c-35.22,0-63.87-28.65-63.87-63.87,0-.96.78-1.74,1.74-1.74s1.74.78,1.74,1.74c0,33.29,27.08,60.38,60.38,60.38s60.38-27.08,60.38-60.38c0-.96.78-1.74,1.74-1.74s1.74.78,1.74,1.74c0,35.22-28.65,63.87-63.87,63.87Z"/><path d="M135.69,130.29c-.96,0-1.74-.78-1.74-1.74v-22.22c0-27.46-22.34-49.81-49.81-49.81s-49.81,22.34-49.81,49.81v22.22c0,.96-.78,1.74-1.74,1.74s-1.74-.78-1.74-1.74v-22.22c0-29.39,23.91-53.3,53.3-53.3s53.3,23.91,53.3,53.3v22.22c0,.96-.78,1.74-1.74,1.74Z"/><path d="M29.47,206.67c-.22,0-.45-.04-.67-.13-16.66-6.92-26.2-16.77-28.34-29.29-2.04-11.91,2.59-25.78,13.74-41.22,8.2-11.36,16.85-19.18,17.21-19.51.72-.65,1.82-.58,2.46.13.64.72.59,1.82-.13,2.46-.34.31-34.35,31.26-29.84,57.55,1.93,11.25,10.75,20.22,26.24,26.65.89.37,1.31,1.39.94,2.28-.28.67-.93,1.08-1.61,1.08Z"/><path d="M141.48,201.05c-.65,0-1.27-.36-1.57-.98-.42-.87-.06-1.91.8-2.33,33.34-16.28,50.23-43.15,50.21-79.88-.01-18.92-4.76-35.73-7.77-44.5-6.92,35.45-46.4,51.29-46.82,51.45-.9.35-1.91-.09-2.26-.99-.35-.9.09-1.91.99-2.26.43-.17,43.03-17.3,45.52-55.45.05-.8.65-1.46,1.44-1.6.8-.13,1.58.28,1.9,1.01.43.96,10.45,23.92,10.5,52.22.04,26.28-8.97,62.04-52.16,83.13-.25.12-.51.18-.76.18Z"/><circle class="cls-5" cx="84.14" cy="192.89" r="6.42"/><path d="M84.14,201.05c-4.5,0-8.16-3.66-8.16-8.16s3.66-8.16,8.16-8.16,8.16,3.66,8.16,8.16-3.66,8.16-8.16,8.16ZM84.14,188.22c-2.57,0-4.67,2.1-4.67,4.67s2.1,4.67,4.67,4.67,4.67-2.1,4.67-4.67-2.1-4.67-4.67-4.67Z"/></g></svg>